{"asset":{"copyright":"","generator":"SharpGLTF 1.0.0-alpha0012","version":"2.0"},"accessors":[{"name":"POSITION","bufferView":0,"componentType":5126,"count":8,"max":[0.21072989702224731,0.023241478949785233,0.061999998986721039],"min":[0.095876656472682953,-0.031770907342433929,0.0],"type":"VEC3"},{"bufferView":1,"componentType":5123,"count":36,"type":"SCALAR"},{"name":"POSITION","bufferView":0,"byteOffset":96,"componentType":5126,"count":8,"max":[0.02523680217564106,0.075710400938987732,0.061999998986721039],"min":[-0.14144346117973328,-0.034040335565805435,0.0],"type":"VEC3"},{"bufferView":1,"byteOffset":72,"componentType":5123,"count":36,"type":"SCALAR"}],"bufferViews":[{"buffer":0,"byteLength":192,"byteStride":12,"target":34962},{"buffer":0,"byteLength":144,"byteOffset":192,"target":34963}],"buffers":[{"byteLength":336,"uri":"零件1.bin"}],"materials":[{"doubleSided":true,"pbrMetallicRoughness":{"baseColorFactor":[0.796078444,0.8235294,0.9372549,1.0]}},{"doubleSided":true,"pbrMetallicRoughness":{"baseColorFactor":[0.796078444,0.8235294,0.9372549,1.0]}}],"meshes":[{"name":"mesh","primitives":[{"attributes":{"POSITION":0},"indices":1,"material":0}]},{"name":"mesh","primitives":[{"attributes":{"POSITION":2},"indices":3,"material":1}]}],"nodes":[{"mesh":0},{"mesh":1}],"scenes":[{"nodes":[0,1]}]}