{"asset":{"copyright":"","generator":"SharpGLTF 1.0.0-alpha0012","version":"2.0"},"accessors":[{"name":"POSITION","bufferView":0,"componentType":5126,"count":4,"max":[0.095876656472682953,0.023241478949785233,0.061999998986721039],"min":[0.095876656472682953,-0.031770907342433929,0.0],"type":"VEC3"},{"bufferView":1,"componentType":5123,"count":6,"type":"SCALAR"},{"name":"POSITION","bufferView":0,"byteOffset":48,"componentType":5126,"count":4,"max":[0.21072989702224731,-0.031770907342433929,0.061999998986721039],"min":[0.095876656472682953,-0.031770907342433929,0.0],"type":"VEC3"},{"bufferView":1,"byteOffset":12,"componentType":5123,"count":6,"type":"SCALAR"},{"name":"POSITION","bufferView":0,"byteOffset":96,"componentType":5126,"count":4,"max":[0.21072989702224731,0.023241478949785233,0.061999998986721039],"min":[0.21072989702224731,-0.031770907342433929,0.0],"type":"VEC3"},{"bufferView":1,"byteOffset":24,"componentType":5123,"count":6,"type":"SCALAR"},{"name":"POSITION","bufferView":0,"byteOffset":144,"componentType":5126,"count":4,"max":[0.21072989702224731,0.023241478949785233,0.061999998986721039],"min":[0.095876656472682953,0.023241478949785233,0.0],"type":"VEC3"},{"bufferView":1,"byteOffset":36,"componentType":5123,"count":6,"type":"SCALAR"},{"name":"POSITION","bufferView":0,"byteOffset":192,"componentType":5126,"count":4,"max":[0.21072989702224731,0.023241478949785233,0.061999998986721039],"min":[0.095876656472682953,-0.031770907342433929,0.061999998986721039],"type":"VEC3"},{"bufferView":1,"byteOffset":48,"componentType":5123,"count":6,"type":"SCALAR"},{"name":"POSITION","bufferView":0,"byteOffset":240,"componentType":5126,"count":4,"max":[0.21072989702224731,0.023241478949785233,0.0],"min":[0.095876656472682953,-0.031770907342433929,0.0],"type":"VEC3"},{"bufferView":1,"byteOffset":60,"componentType":5123,"count":6,"type":"SCALAR"},{"name":"POSITION","bufferView":0,"byteOffset":288,"componentType":5126,"count":4,"max":[-0.14144346117973328,0.075710400938987732,0.061999998986721039],"min":[-0.14144346117973328,-0.034040335565805435,0.0],"type":"VEC3"},{"bufferView":1,"byteOffset":72,"componentType":5123,"count":6,"type":"SCALAR"},{"name":"POSITION","bufferView":0,"byteOffset":336,"componentType":5126,"count":4,"max":[0.02523680217564106,-0.034040335565805435,0.061999998986721039],"min":[-0.14144346117973328,-0.034040335565805435,0.0],"type":"VEC3"},{"bufferView":1,"byteOffset":84,"componentType":5123,"count":6,"type":"SCALAR"},{"name":"POSITION","bufferView":0,"byteOffset":384,"componentType":5126,"count":4,"max":[0.02523680217564106,0.075710400938987732,0.061999998986721039],"min":[0.02523680217564106,-0.034040335565805435,0.0],"type":"VEC3"},{"bufferView":1,"byteOffset":96,"componentType":5123,"count":6,"type":"SCALAR"},{"name":"POSITION","bufferView":0,"byteOffset":432,"componentType":5126,"count":4,"max":[0.02523680217564106,0.075710400938987732,0.061999998986721039],"min":[-0.14144346117973328,0.075710400938987732,0.0],"type":"VEC3"},{"bufferView":1,"byteOffset":108,"componentType":5123,"count":6,"type":"SCALAR"},{"name":"POSITION","bufferView":0,"byteOffset":480,"componentType":5126,"count":4,"max":[0.02523680217564106,0.075710400938987732,0.061999998986721039],"min":[-0.14144346117973328,-0.034040335565805435,0.061999998986721039],"type":"VEC3"},{"bufferView":1,"byteOffset":120,"componentType":5123,"count":6,"type":"SCALAR"},{"name":"POSITION","bufferView":0,"byteOffset":528,"componentType":5126,"count":4,"max":[0.02523680217564106,0.075710400938987732,0.0],"min":[-0.14144346117973328,-0.034040335565805435,0.0],"type":"VEC3"},{"bufferView":1,"byteOffset":132,"componentType":5123,"count":6,"type":"SCALAR"}],"bufferViews":[{"buffer":0,"byteLength":576,"byteStride":12,"target":34962},{"buffer":0,"byteLength":144,"byteOffset":576,"target":34963}],"buffers":[{"byteLength":720,"uri":"零件1.bin"}],"materials":[{"doubleSided":true,"pbrMetallicRoughness":{"baseColorFactor":[0.796078444,0.8235294,0.9372549,1.0]}},{"doubleSided":true,"normalTexture":{"index":0},"pbrMetallicRoughness":{}}],"meshes":[{"name":"mesh","primitives":[{"attributes":{"POSITION":0},"indices":1,"material":0}]},{"name":"mesh","primitives":[{"attributes":{"POSITION":2},"indices":3,"material":0}]},{"name":"mesh","primitives":[{"attributes":{"POSITION":4},"indices":5,"material":0}]},{"name":"mesh","primitives":[{"attributes":{"POSITION":6},"indices":7,"material":0}]},{"name":"mesh","primitives":[{"attributes":{"POSITION":8},"indices":9,"material":0}]},{"name":"mesh","primitives":[{"attributes":{"POSITION":10},"indices":11,"material":0}]},{"name":"mesh","primitives":[{"attributes":{"POSITION":12},"indices":13,"material":0}]},{"name":"mesh","primitives":[{"attributes":{"POSITION":14},"indices":15,"material":0}]},{"name":"mesh","primitives":[{"attributes":{"POSITION":16},"indices":17,"material":0}]},{"name":"mesh","primitives":[{"attributes":{"POSITION":18},"indices":19,"material":1}]},{"name":"mesh","primitives":[{"attributes":{"POSITION":20},"indices":21,"material":0}]},{"name":"mesh","primitives":[{"attributes":{"POSITION":22},"indices":23,"material":0}]}],"nodes":[{"mesh":0},{"mesh":1},{"mesh":2},{"mesh":3},{"mesh":4},{"mesh":5},{"mesh":6},{"mesh":7},{"mesh":8},{"mesh":9},{"mesh":10},{"mesh":11}],"scenes":[{"nodes":[0,1,2,3,4,5,6,7,8,9,10,11]}]}